<svg xmlns="http://www.w3.org/2000/svg" width="2000" viewBox="0 0 375 375" height="800" version="1.0"><defs><clipPath id="a"><path d="M 32 53 L 293 53 L 293 267 L 32 267 Z M 32 53"/></clipPath><clipPath id="b"><path d="M 0 119.152344 L 247.660156 15.433594 L 325.59375 201.523438 L 77.933594 305.242188 Z M 0 119.152344"/></clipPath><clipPath id="c"><path d="M 0 119.152344 L 247.660156 15.433594 L 325.59375 201.523438 L 77.933594 305.242188 Z M 0 119.152344"/></clipPath></defs><g clip-path="url(#a)"><g clip-path="url(#b)"><g clip-path="url(#c)"><path fill="#FCC13F" d="M 286.625 108.476562 C 287.265625 110 287.851562 111.542969 288.390625 113.105469 C 288.925781 114.667969 289.414062 116.25 289.847656 117.847656 C 290.285156 119.445312 290.667969 121.058594 291.003906 122.691406 C 291.335938 124.320312 291.617188 125.964844 291.847656 127.625 C 292.078125 129.285156 292.257812 130.957031 292.382812 132.640625 C 292.507812 134.324219 292.582031 136.015625 292.605469 137.71875 C 292.628906 139.421875 292.597656 141.136719 292.515625 142.855469 C 292.433594 144.574219 292.296875 146.300781 292.113281 148.03125 C 291.925781 149.761719 291.6875 151.5 291.398438 153.238281 C 291.109375 154.976562 290.765625 156.71875 290.375 158.460938 C 289.980469 160.203125 289.535156 161.949219 289.042969 163.691406 C 288.546875 165.433594 288 167.171875 287.40625 168.910156 C 286.808594 170.648438 286.164062 172.378906 285.46875 174.109375 C 284.773438 175.839844 284.03125 177.558594 283.238281 179.277344 C 282.445312 180.992188 281.605469 182.699219 280.714844 184.394531 C 279.828125 186.09375 278.894531 187.78125 277.910156 189.460938 C 276.929688 191.136719 275.902344 192.800781 274.828125 194.453125 C 273.753906 196.101562 272.636719 197.738281 271.476562 199.363281 C 270.3125 200.984375 269.109375 202.589844 267.859375 204.179688 C 266.613281 205.765625 265.324219 207.335938 263.992188 208.890625 C 262.660156 210.441406 261.292969 211.972656 259.878906 213.484375 C 258.46875 214.992188 257.023438 216.480469 255.535156 217.949219 C 254.046875 219.414062 252.527344 220.855469 250.964844 222.273438 C 249.40625 223.695312 247.8125 225.085938 246.183594 226.453125 C 244.558594 227.820312 242.894531 229.160156 241.203125 230.472656 C 239.507812 231.785156 237.785156 233.066406 236.03125 234.320312 C 234.277344 235.574219 232.496094 236.800781 230.683594 237.992188 C 228.875 239.183594 227.035156 240.347656 225.171875 241.476562 C 223.308594 242.605469 221.421875 243.703125 219.511719 244.765625 C 217.601562 245.828125 215.667969 246.855469 213.714844 247.851562 C 211.757812 248.84375 209.785156 249.800781 207.792969 250.726562 C 205.800781 251.648438 203.789062 252.53125 201.765625 253.382812 C 199.738281 254.230469 197.695312 255.039062 195.640625 255.8125 C 193.585938 256.585938 191.519531 257.320312 189.4375 258.015625 C 187.359375 258.710938 185.269531 259.367188 183.171875 259.984375 C 181.074219 260.601562 178.96875 261.175781 176.855469 261.710938 C 174.746094 262.246094 172.628906 262.742188 170.507812 263.195312 C 168.386719 263.648438 166.265625 264.058594 164.140625 264.429688 C 162.015625 264.800781 159.890625 265.128906 157.769531 265.414062 C 155.644531 265.699219 153.527344 265.941406 151.410156 266.144531 C 149.292969 266.347656 147.183594 266.503906 145.078125 266.621094 C 142.972656 266.738281 140.878906 266.808594 138.789062 266.839844 C 136.703125 266.871094 134.625 266.859375 132.558594 266.804688 C 130.492188 266.75 128.441406 266.652344 126.402344 266.511719 C 124.363281 266.371094 122.339844 266.1875 120.332031 265.964844 C 118.324219 265.738281 116.332031 265.46875 114.363281 265.160156 C 112.390625 264.851562 110.441406 264.5 108.511719 264.105469 C 106.582031 263.710938 104.675781 263.277344 102.789062 262.800781 C 100.90625 262.324219 99.046875 261.804688 97.214844 261.246094 C 95.378906 260.6875 93.574219 260.089844 91.796875 259.453125 C 90.015625 258.8125 88.269531 258.132812 86.550781 257.417969 C 84.828125 256.699219 83.140625 255.945312 81.484375 255.148438 C 79.828125 254.355469 78.207031 253.523438 76.617188 252.652344 C 75.027344 251.78125 73.476562 250.875 71.957031 249.933594 C 70.441406 248.992188 68.960938 248.011719 67.515625 247 C 66.074219 245.984375 64.671875 244.9375 63.304688 243.855469 C 61.941406 242.773438 60.617188 241.65625 59.332031 240.511719 C 58.050781 239.363281 56.808594 238.183594 55.609375 236.972656 C 54.414062 235.761719 53.257812 234.519531 52.148438 233.25 C 51.035156 231.980469 49.96875 230.679688 48.949219 229.351562 C 47.929688 228.023438 46.953125 226.667969 46.027344 225.285156 C 45.097656 223.90625 44.214844 222.5 43.382812 221.066406 C 42.550781 219.632812 41.765625 218.179688 41.027344 216.699219 C 40.292969 215.21875 39.605469 213.71875 38.96875 212.195312 C 38.328125 210.671875 37.742188 209.128906 37.203125 207.566406 C 36.667969 206.003906 36.179688 204.425781 35.746094 202.824219 C 35.308594 201.226562 34.921875 199.613281 34.589844 197.980469 C 34.257812 196.351562 33.976562 194.707031 33.746094 193.046875 C 33.515625 191.386719 33.335938 189.71875 33.210938 188.035156 C 33.085938 186.351562 33.011719 184.65625 32.988281 182.953125 C 32.964844 181.25 32.996094 179.539062 33.078125 177.820312 C 33.160156 176.097656 33.296875 174.375 33.480469 172.640625 C 33.667969 170.910156 33.90625 169.175781 34.195312 167.433594 C 34.484375 165.695312 34.828125 163.953125 35.21875 162.210938 C 35.613281 160.46875 36.058594 158.726562 36.550781 156.984375 C 37.046875 155.242188 37.59375 153.5 38.1875 151.761719 C 38.785156 150.027344 39.429688 148.292969 40.125 146.5625 C 40.820312 144.835938 41.5625 143.113281 42.355469 141.398438 C 43.148438 139.683594 43.988281 137.976562 44.875 136.277344 C 45.765625 134.578125 46.699219 132.890625 47.683594 131.214844 C 48.664062 129.535156 49.691406 127.871094 50.765625 126.222656 C 51.839844 124.570312 52.957031 122.933594 54.117188 121.3125 C 55.28125 119.6875 56.484375 118.082031 57.734375 116.496094 C 58.980469 114.90625 60.269531 113.335938 61.601562 111.785156 C 62.933594 110.230469 64.300781 108.699219 65.710938 107.191406 C 67.125 105.679688 68.570312 104.191406 70.058594 102.726562 C 71.546875 101.257812 73.066406 99.816406 74.628906 98.398438 C 76.1875 96.980469 77.78125 95.585938 79.410156 94.21875 C 81.035156 92.851562 82.699219 91.515625 84.390625 90.203125 C 86.085938 88.890625 87.808594 87.605469 89.5625 86.351562 C 91.316406 85.097656 93.097656 83.875 94.910156 82.679688 C 96.71875 81.488281 98.558594 80.328125 100.421875 79.195312 C 102.285156 78.066406 104.171875 76.972656 106.082031 75.90625 C 107.992188 74.84375 109.925781 73.816406 111.878906 72.824219 C 113.835938 71.828125 115.808594 70.871094 117.800781 69.949219 C 119.792969 69.027344 121.804688 68.140625 123.828125 67.292969 C 125.855469 66.441406 127.898438 65.632812 129.953125 64.859375 C 132.007812 64.085938 134.074219 63.351562 136.15625 62.65625 C 138.234375 61.960938 140.324219 61.304688 142.421875 60.6875 C 144.519531 60.074219 146.625 59.496094 148.738281 58.960938 C 150.847656 58.425781 152.964844 57.933594 155.085938 57.480469 C 157.207031 57.027344 159.328125 56.613281 161.453125 56.246094 C 163.578125 55.875 165.703125 55.546875 167.824219 55.261719 C 169.949219 54.972656 172.066406 54.730469 174.183594 54.527344 C 176.300781 54.328125 178.410156 54.167969 180.515625 54.050781 C 182.621094 53.9375 184.714844 53.863281 186.804688 53.832031 C 188.890625 53.800781 190.96875 53.8125 193.035156 53.867188 C 195.101562 53.921875 197.152344 54.019531 199.191406 54.160156 C 201.230469 54.300781 203.253906 54.484375 205.261719 54.710938 C 207.269531 54.933594 209.261719 55.203125 211.230469 55.511719 C 213.203125 55.824219 215.152344 56.175781 217.082031 56.566406 C 219.011719 56.960938 220.917969 57.398438 222.804688 57.875 C 224.6875 58.351562 226.546875 58.867188 228.378906 59.425781 C 230.214844 59.984375 232.019531 60.582031 233.796875 61.222656 C 235.578125 61.859375 237.324219 62.539062 239.042969 63.257812 C 240.765625 63.972656 242.453125 64.730469 244.109375 65.523438 C 245.765625 66.320312 247.386719 67.152344 248.976562 68.019531 C 250.566406 68.890625 252.117188 69.796875 253.636719 70.738281 C 255.152344 71.683594 256.632812 72.660156 258.078125 73.675781 C 259.519531 74.6875 260.921875 75.734375 262.289062 76.816406 C 263.652344 77.898438 264.976562 79.015625 266.261719 80.164062 C 267.542969 81.3125 268.785156 82.488281 269.984375 83.699219 C 271.179688 84.910156 272.335938 86.152344 273.445312 87.421875 C 274.558594 88.695312 275.625 89.992188 276.644531 91.320312 C 277.664062 92.648438 278.640625 94.003906 279.566406 95.386719 C 280.496094 96.769531 281.378906 98.175781 282.210938 99.605469 C 283.042969 101.039062 283.828125 102.496094 284.566406 103.972656 C 285.300781 105.453125 285.988281 106.953125 286.625 108.476562 Z M 286.625 108.476562"/></g></g></g></svg>